inDegrees=no
num_controls=7
num_derivatives=13
num_iterations=105
num_multipliers=7
num_parameters=0
num_slacks=7
num_states=26
objective=0.497124
objective_accelerations=0.032422
objective_balance=0.003292
objective_effort=0.035087
objective_height=0.420825
objective_ligament=0.005499
solver_duration=1201.759112
status=Solve_Succeeded
success=true
DataType=double
version=3
OpenSimVersion=4.5
endheader
time	/jointset/ground_pelvis/pelvis_tilt/value	/jointset/ground_pelvis/pelvis_tx/value	/jointset/ground_pelvis/pelvis_ty/value	/jointset/hip_r/hip_flexion_r/value	/jointset/hip_r/hip_adduction_r/value	/jointset/hip_r/hip_rotation_r/value	/jointset/back/lumbar_extension/value	/jointset/patellofemoral_r/patellar_flexion_r/value	/jointset/knee_r/knee_flexion_r/value	/jointset/knee_r/knee_adduction_r/value	/jointset/knee_r/knee_rotation_r/value	/jointset/ankle_r/ankle_angle_r/value	/jointset/subtalar_r/subtalar_angle_r/value	/jointset/ground_pelvis/pelvis_tilt/speed	/jointset/ground_pelvis/pelvis_tx/speed	/jointset/ground_pelvis/pelvis_ty/speed	/jointset/hip_r/hip_flexion_r/speed	/jointset/hip_r/hip_adduction_r/speed	/jointset/hip_r/hip_rotation_r/speed	/jointset/back/lumbar_extension/speed	/jointset/patellofemoral_r/patellar_flexion_r/speed	/jointset/knee_r/knee_flexion_r/speed	/jointset/knee_r/knee_adduction_r/speed	/jointset/knee_r/knee_rotation_r/speed	/jointset/ankle_r/ankle_angle_r/speed	/jointset/subtalar_r/subtalar_angle_r/speed	/forceset/tau_hip_flexion_r	/forceset/tau_hip_adduction_r	/forceset/tau_hip_rotation_r	/forceset/tau_knee_flexion_r	/forceset/tau_ankle_angle_r	/forceset/tau_subtalar_angle_r	/forceset/tau_lumbar_extension	lambda_cid13_p0	lambda_cid14_p0	lambda_cid14_p1	lambda_cid14_p2	lambda_cid14_p3	lambda_cid14_p4	lambda_cid14_p5	/jointset/ground_pelvis/pelvis_tilt/accel	/jointset/ground_pelvis/pelvis_tx/accel	/jointset/ground_pelvis/pelvis_ty/accel	/jointset/hip_r/hip_flexion_r/accel	/jointset/hip_r/hip_adduction_r/accel	/jointset/hip_r/hip_rotation_r/accel	/jointset/back/lumbar_extension/accel	/jointset/patellofemoral_r/patellar_flexion_r/accel	/jointset/knee_r/knee_flexion_r/accel	/jointset/knee_r/knee_adduction_r/accel	/jointset/knee_r/knee_rotation_r/accel	/jointset/ankle_r/ankle_angle_r/accel	/jointset/subtalar_r/subtalar_angle_r/accel	gamma_cid13_p0	gamma_cid14_p0	gamma_cid14_p1	gamma_cid14_p2	gamma_cid14_p3	gamma_cid14_p4	gamma_cid14_p5
1	-0.1818202402132663	0.03779009126548798	0.749250331373349	1.099298177568738	-0.2365994664186756	-0.0704954194818667	-0.4362848124766671	1.159890833761274	1.159890833761131	-0.02872735913302251	0.1745232531025935	0.4363089867862789	0.1033012899492736	0.0002246158727808814	0.004359341778291276	0.01283720021764566	-0.03701057538441117	0.001826062146094234	-0.01021931749344461	0.004725307058490365	-0.04578265659561902	-0.04578265659561788	0.0002884054455824766	-9.72792120810681e-05	-0.01026639380949984	-0.0006250607339032362	-0.198884632176113	0.02961021302075384	0.01343893172736881	-0.4461140781367054	-0.04050268352620519	0.004437760352233156	0.2444616973752046	-3.020544746507364	-60.35123436457519	-9.056908100807179	2.380388189551184	20.65157752272133	-771.5390396464576	54.94890097445722	0.9413279873230821	0.001178783820146273	1.24366432622303	-3.884931810226988	0.1221471037618387	-0.5925549642886562	0.2834970813464742	-4.350575307693484	-4.3505753076935	0.4810494900639266	-0.003116649047200141	-1.594341360923557	-0.3963987349018506	9.797296340414245e-10	-2.508429362931233e-09	3.007917496134443e-09	8.156785418850051e-09	6.738351818368115e-09	-4.185004863099581e-09	1.600226361001795e-09
1.01	-0.1817719414223453	0.03783392900756339	0.7494407577202838	1.098734750017629	-0.2365752237065269	-0.07062667506666824	-0.4362212352926385	1.159215638875157	1.159215638875037	-0.02869974376811729	0.1745220861406558	0.4361268056499861	0.1032750708804569	0.00939258847864799	0.004428476659901121	0.02524779130139888	-0.07566647459851406	0.003018872241637164	-0.01603261769567077	0.008138600972959984	-0.08927162119463042	-0.08927162119462899	0.005244303322806578	-0.0001319718948495525	-0.02615182911679721	-0.004617160361046669	-0.1995913960598549	0.02972789687743235	0.01344140208793151	-0.4457137721055	-0.04074016186422887	0.004432530361549767	0.2452430100947583	-3.047343815404214	-60.44194087023487	-9.072527034510067	2.379983245591676	20.46348889538455	-771.9750972302688	54.88660273301387	0.8981496389875601	0.01282272102379451	1.239713366074736	-3.854649337898624	0.1173098412654466	-0.5758391643285871	0.3925162304321779	-4.3503524958894	-4.350352495889344	0.5043061240262627	-0.003020874405938561	-1.58294478239016	-0.4003734554751521	1.865347874727339e-09	-2.052692686545522e-09	7.840904512371684e-09	1.587277667089574e-08	6.884902946537586e-09	-7.2351227274501e-09	6.327449624532961e-09
1.02	-0.1816332393570115	0.03787906647459346	0.7497552813513809	1.097785017402199	-0.2365391605176617	-0.07081608797671787	-0.4361190710326794	1.158105095251072	1.158105095250977	-0.02862228018694476	0.1745206971925845	0.4357863101272693	0.1032089792395977	0.01830527075527259	0.00461928676922325	0.03765665705008191	-0.1142715882484836	0.004190157489778221	-0.02185078254345416	0.01244272224482489	-0.1328524041890194	-0.1328524041890178	0.01025804869901761	-0.0001416764381891334	-0.04192927109438865	-0.008599575142372976	-0.2002981599435978	0.02984558073411018	0.01344387244845499	-0.4453134660742964	-0.04097764020225282	0.004427300370865983	0.2460243228143113	-3.091739767594933	-60.54290315141203	-9.084841810902761	2.373226284615935	20.29721393694765	-772.5749095584399	54.84927361162001	0.890269921474603	0.02551382936258512	1.243319259208989	-3.874774697400313	0.1178421342814676	-0.5935278934000873	0.4616625528255511	-4.368938986769003	-4.368938986769034	0.4926189898613192	0.001880978838571871	-1.572742694982399	-0.3944617657384308	2.810335201270847e-09	-1.165281852126328e-09	1.015652128467471e-08	2.470224561717069e-08	6.565947079160779e-09	-9.193633088596779e-09	8.451976418541943e-09
1.03	-0.1814065938790708	0.03792671856219715	0.7501938439814336	1.096449465271791	-0.2364914821368701	-0.0710636786909225	-0.4359695833110129	1.156558348200752	1.156558348200682	-0.02849439830001631	0.1745192922757096	0.4352885791055003	0.103103140337859	0.02698870126628272	0.004931354248626296	0.05005124986762815	-0.1528306022425916	0.005343187124318072	-0.02766495252398024	0.01758891065269861	-0.1765058258191997	-0.1765058258191989	0.01532700380598461	-0.000140297691364786	-0.05759894676234992	-0.01256329577471439	-0.2007359101403102	0.02988544689036718	0.01345619155198246	-0.4447030487065216	-0.04100351187828419	0.004395630153449883	0.2465694885553603	-3.1541199955291	-60.55398192123688	-9.089731259664024	2.361664168517087	20.09127183686337	-772.7831495835611	54.79595184830983	0.8521122701109959	0.03708797823287635	1.236834189097875	-3.845228502788529	0.1136897382980765	-0.5749975331008337	0.5612102694525296	-4.364867499679569	-4.364867499679674	0.5153361205288147	-0.0008750382476537327	-1.561382943469866	-0.3965847315685855	3.755928334812901e-09	-2.734661793598514e-10	1.2446450605509e-08	3.354307658073369e-08	6.242241140400844e-09	-1.114100459766994e-08	1.054994508531089e-08
